<svg width="36" height="36" viewBox="0 0 36 36" fill="none" xmlns="http://www.w3.org/2000/svg">
<g id="Solid/Interface/Arrow left">
<path id="Icon" d="M16.5455 12.7955C16.9848 12.3562 16.9848 11.6438 16.5455 11.2045C16.1062 10.7652 15.3938 10.7652 14.9545 11.2045L8.9545 17.2045C8.73483 17.4242 8.625 17.7121 8.625 18C8.625 18.1525 8.65536 18.298 8.71036 18.4306C8.76526 18.5633 8.84664 18.6876 8.9545 18.7955L14.9545 24.7955C15.3938 25.2348 16.1062 25.2348 16.5455 24.7955C16.9848 24.3562 16.9848 23.6438 16.5455 23.2045L12.466 19.125H27C27.6213 19.125 28.125 18.6213 28.125 18C28.125 17.3787 27.6213 16.875 27 16.875H12.466L16.5455 12.7955Z" fill="black"/>
</g>
</svg>
