<svg width="21" height="20" viewBox="0 0 21 20" fill="none" xmlns="http://www.w3.org/2000/svg">
<path fill-rule="evenodd" clip-rule="evenodd" d="M6.49984 1.5C6.77598 1.5 6.99984 1.72386 6.99984 2V3H13.9998V2C13.9998 1.72386 14.2237 1.5 14.4998 1.5C14.776 1.5 14.9998 1.72386 14.9998 2V3H17.3332C18.1616 3 18.8332 3.67157 18.8332 4.5V16.8333C18.8332 17.6618 18.1616 18.3333 17.3332 18.3333H3.6665C2.83808 18.3333 2.1665 17.6618 2.1665 16.8333V4.5C2.1665 3.67157 2.83808 3 3.6665 3H5.99984V2C5.99984 1.72386 6.22369 1.5 6.49984 1.5ZM13.9998 4V4.66667C13.9998 4.94281 14.2237 5.16667 14.4998 5.16667C14.776 5.16667 14.9998 4.94281 14.9998 4.66667V4H17.3332C17.6093 4 17.8332 4.22386 17.8332 4.5V7H3.1665V4.5C3.1665 4.22386 3.39036 4 3.6665 4H5.99984V4.66667C5.99984 4.94281 6.22369 5.16667 6.49984 5.16667C6.77598 5.16667 6.99984 4.94281 6.99984 4.66667V4H13.9998ZM3.1665 8V16.8333C3.1665 17.1095 3.39036 17.3333 3.6665 17.3333H17.3332C17.6093 17.3333 17.8332 17.1095 17.8332 16.8333V8H3.1665ZM9.83317 9.83333C9.83317 9.55719 10.057 9.33333 10.3332 9.33333H10.6665C10.9426 9.33333 11.1665 9.55719 11.1665 9.83333V10.1667C11.1665 10.4428 10.9426 10.6667 10.6665 10.6667H10.3332C10.057 10.6667 9.83317 10.4428 9.83317 10.1667V9.83333ZM12.9998 9.33333C12.7237 9.33333 12.4998 9.55719 12.4998 9.83333V10.1667C12.4998 10.4428 12.7237 10.6667 12.9998 10.6667H13.3332C13.6093 10.6667 13.8332 10.4428 13.8332 10.1667V9.83333C13.8332 9.55719 13.6093 9.33333 13.3332 9.33333H12.9998ZM15.1665 9.83333C15.1665 9.55719 15.3904 9.33333 15.6665 9.33333H15.9998C16.276 9.33333 16.4998 9.55719 16.4998 9.83333V10.1667C16.4998 10.4428 16.276 10.6667 15.9998 10.6667H15.6665C15.3904 10.6667 15.1665 10.4428 15.1665 10.1667V9.83333ZM15.6665 12C15.3904 12 15.1665 12.2239 15.1665 12.5V12.8333C15.1665 13.1095 15.3904 13.3333 15.6665 13.3333H15.9998C16.276 13.3333 16.4998 13.1095 16.4998 12.8333V12.5C16.4998 12.2239 16.276 12 15.9998 12H15.6665ZM12.4998 12.5C12.4998 12.2239 12.7237 12 12.9998 12H13.3332C13.6093 12 13.8332 12.2239 13.8332 12.5V12.8333C13.8332 13.1095 13.6093 13.3333 13.3332 13.3333H12.9998C12.7237 13.3333 12.4998 13.1095 12.4998 12.8333V12.5ZM10.3332 12C10.057 12 9.83317 12.2239 9.83317 12.5V12.8333C9.83317 13.1095 10.057 13.3333 10.3332 13.3333H10.6665C10.9426 13.3333 11.1665 13.1095 11.1665 12.8333V12.5C11.1665 12.2239 10.9426 12 10.6665 12H10.3332ZM7.1665 12.5C7.1665 12.2239 7.39036 12 7.6665 12H7.99984C8.27598 12 8.49984 12.2239 8.49984 12.5V12.8333C8.49984 13.1095 8.27598 13.3333 7.99984 13.3333H7.6665C7.39036 13.3333 7.1665 13.1095 7.1665 12.8333V12.5ZM4.99984 12C4.72369 12 4.49984 12.2239 4.49984 12.5V12.8333C4.49984 13.1095 4.7237 13.3333 4.99984 13.3333H5.33317C5.60931 13.3333 5.83317 13.1095 5.83317 12.8333V12.5C5.83317 12.2239 5.60931 12 5.33317 12H4.99984ZM4.49984 15.1667C4.49984 14.8905 4.72369 14.6667 4.99984 14.6667H5.33317C5.60931 14.6667 5.83317 14.8905 5.83317 15.1667V15.5C5.83317 15.7761 5.60931 16 5.33317 16H4.99984C4.7237 16 4.49984 15.7761 4.49984 15.5V15.1667ZM7.6665 14.6667C7.39036 14.6667 7.1665 14.8905 7.1665 15.1667V15.5C7.1665 15.7761 7.39036 16 7.6665 16H7.99984C8.27598 16 8.49984 15.7761 8.49984 15.5V15.1667C8.49984 14.8905 8.27598 14.6667 7.99984 14.6667H7.6665ZM9.83317 15.1667C9.83317 14.8905 10.057 14.6667 10.3332 14.6667H10.6665C10.9426 14.6667 11.1665 14.8905 11.1665 15.1667V15.5C11.1665 15.7761 10.9426 16 10.6665 16H10.3332C10.057 16 9.83317 15.7761 9.83317 15.5V15.1667ZM12.9998 14.6667C12.7237 14.6667 12.4998 14.8905 12.4998 15.1667V15.5C12.4998 15.7761 12.7237 16 12.9998 16H13.3332C13.6093 16 13.8332 15.7761 13.8332 15.5V15.1667C13.8332 14.8905 13.6093 14.6667 13.3332 14.6667H12.9998Z" fill="black"/>
</svg>
