<svg width="28" height="28" viewBox="0 0 28 28" fill="none" xmlns="http://www.w3.org/2000/svg">
<g id="Pin Bottom">
<path id="Shape" fill-rule="evenodd" clip-rule="evenodd" d="M25.2004 26.1999C25.7527 26.1999 26.2004 25.7522 26.2004 25.1999C26.2004 24.6476 25.7527 24.1999 25.2004 24.1999L2.80039 24.1999C2.24811 24.1999 1.80039 24.6476 1.80039 25.1999C1.80039 25.7522 2.24811 26.1999 2.80039 26.1999L25.2004 26.1999ZM20.7741 14.2406C21.1646 13.8501 21.1646 13.2169 20.7741 12.8264C20.3836 12.4359 19.7504 12.4359 19.3599 12.8264L15.0003 17.186L15.0003 2.79996C15.0003 2.24768 14.5526 1.79996 14.0003 1.79996C13.4481 1.79996 13.0003 2.24768 13.0003 2.79996L13.0003 17.186L8.64079 12.8264C8.25026 12.4359 7.6171 12.4359 7.22657 12.8264C6.83605 13.2169 6.83605 13.8501 7.22657 14.2406L13.2932 20.3073C13.4808 20.4948 13.7351 20.6002 14.0003 20.6002C14.2656 20.6002 14.5199 20.4948 14.7075 20.3073L20.7741 14.2406Z" fill="#1E1E1E"/>
</g>
</svg>
