<svg width="29" height="28" viewBox="0 0 29 28" fill="none" xmlns="http://www.w3.org/2000/svg">
<g id="Paper Plane">
<path id="Shape" fill-rule="evenodd" clip-rule="evenodd" d="M2.27236 1.88626C1.87582 1.71002 1.41089 1.80963 1.12136 2.13285C0.83183 2.45607 0.783793 2.92912 1.00244 3.30394L7.24185 14.0001L1.00244 24.6962C0.783793 25.071 0.83183 25.5441 1.12136 25.8673C1.41089 26.1905 1.87582 26.2901 2.27236 26.1139L27.4724 14.9139C27.8335 14.7534 28.0662 14.3953 28.0662 14.0001C28.0662 13.6049 27.8335 13.2468 27.4724 13.0863L2.27236 1.88626ZM8.97392 13.0001L4.29089 4.97202L24.604 14.0001L4.29089 23.0281L8.97392 15.0001H16.7995C17.3518 15.0001 17.7995 14.5524 17.7995 14.0001C17.7995 13.4478 17.3518 13.0001 16.7995 13.0001H8.97392Z" fill="#1E1E1E"/>
</g>
</svg>
