<svg width="28" height="28" viewBox="0 0 28 28" fill="none" xmlns="http://www.w3.org/2000/svg">
<g clip-path="url(#clip0_267_408)">
<path d="M10.2608 19.6088L14 15.8696L17.7392 19.6088L19.6089 17.7392L15.8696 14L19.6089 10.2607L17.7392 8.39111L14 12.1304L10.2608 8.39111L8.39113 10.2607L12.1304 14L8.39113 17.7392L10.2608 19.6088Z" fill="#EF4444"/>
<path d="M14 27.2223C21.2907 27.2223 27.2222 21.2908 27.2222 14.0001C27.2222 6.70932 21.2907 0.777832 14 0.777832C6.70927 0.777832 0.777779 6.70932 0.777779 14.0001C0.777779 21.2908 6.70927 27.2223 14 27.2223ZM14 3.42228C19.8323 3.42228 24.5778 8.16773 24.5778 14.0001C24.5778 19.8324 19.8323 24.5778 14 24.5778C8.16768 24.5778 3.42222 19.8324 3.42222 14.0001C3.42222 8.16773 8.16768 3.42228 14 3.42228Z" fill="#EF4444"/>
</g>
<defs>
<clipPath id="clip0_267_408">
<rect width="28" height="28" fill="white"/>
</clipPath>
</defs>
</svg>
