<svg width="65" height="64" viewBox="0 0 65 64" fill="none" xmlns="http://www.w3.org/2000/svg">
<g id="iconamoon:shield-yes-fill">
<path id="Vector" fill-rule="evenodd" clip-rule="evenodd" d="M31.4497 5.54676C31.7817 5.40444 32.1391 5.33105 32.5003 5.33105C32.8615 5.33105 33.219 5.40444 33.551 5.54676L50.6017 12.8561C51.5612 13.2674 52.379 13.9514 52.9535 14.8231C53.528 15.6949 53.8341 16.7161 53.8337 17.7601V36.0534C53.8333 39.3439 52.9632 42.5758 51.3115 45.4217C49.6598 48.2675 47.2852 50.6262 44.4283 52.2588L33.823 58.3174C33.4202 58.5475 32.9643 58.6686 32.5003 58.6686C32.0364 58.6686 31.5805 58.5475 31.1777 58.3174L20.5723 52.2588C17.7146 50.6258 15.3395 48.2662 13.6878 45.4193C12.036 42.5725 11.1664 39.3395 11.167 36.0481V17.7601C11.1671 16.7165 11.4734 15.6959 12.0479 14.8247C12.6224 13.9535 13.4398 13.2699 14.399 12.8588L31.4497 5.54676ZM42.3857 28.5521C42.8714 28.0492 43.1402 27.3756 43.1341 26.6764C43.128 25.9772 42.8476 25.3083 42.3532 24.8139C41.8588 24.3195 41.1899 24.039 40.4907 24.033C39.7915 24.0269 39.1179 24.2957 38.615 24.7814L29.8337 33.5628L26.3857 30.1148C25.8827 29.629 25.2091 29.3602 24.5099 29.3663C23.8107 29.3724 23.1419 29.6528 22.6475 30.1472C22.1531 30.6417 21.8726 31.3105 21.8665 32.0097C21.8605 32.7089 22.1292 33.3825 22.615 33.8854L27.9483 39.2188C28.4484 39.7187 29.1266 39.9995 29.8337 39.9995C30.5408 39.9995 31.2189 39.7187 31.719 39.2188L42.3857 28.5521Z" fill="#0056B3"/>
</g>
</svg>
