<svg width="76" height="76" viewBox="0 0 76 76" fill="none" xmlns="http://www.w3.org/2000/svg">
<g id="carbon:ticket">
<path id="Vector" d="M68.875 33.25C69.5049 33.25 70.109 32.9998 70.5544 32.5544C70.9998 32.109 71.25 31.5049 71.25 30.875V19C71.25 17.7402 70.7496 16.532 69.8588 15.6412C68.968 14.7504 67.7598 14.25 66.5 14.25H9.5C8.24022 14.25 7.03204 14.7504 6.14124 15.6412C5.25044 16.532 4.75 17.7402 4.75 19V30.875C4.75 31.5049 5.00022 32.109 5.44562 32.5544C5.89102 32.9998 6.49511 33.25 7.125 33.25C8.38478 33.25 9.59296 33.7504 10.4838 34.6412C11.3746 35.532 11.875 36.7402 11.875 38C11.875 39.2598 11.3746 40.468 10.4838 41.3588C9.59296 42.2496 8.38478 42.75 7.125 42.75C6.49511 42.75 5.89102 43.0002 5.44562 43.4456C5.00022 43.891 4.75 44.4951 4.75 45.125V57C4.75 58.2598 5.25044 59.468 6.14124 60.3588C7.03204 61.2496 8.24022 61.75 9.5 61.75H66.5C67.7598 61.75 68.968 61.2496 69.8588 60.3588C70.7496 59.468 71.25 58.2598 71.25 57V45.125C71.25 44.4951 70.9998 43.891 70.5544 43.4456C70.109 43.0002 69.5049 42.75 68.875 42.75C67.6152 42.75 66.407 42.2496 65.5162 41.3588C64.6254 40.468 64.125 39.2598 64.125 38C64.125 36.7402 64.6254 35.532 65.5162 34.6412C66.407 33.7504 67.6152 33.25 68.875 33.25ZM66.5 47.1913V57H49.875V49.875H45.125V57H9.5V47.1913C11.533 46.6599 13.3325 45.4695 14.6168 43.8064C15.9011 42.1433 16.5977 40.1013 16.5977 38C16.5977 35.8987 15.9011 33.8567 14.6168 32.1936C13.3325 30.5305 11.533 29.3401 9.5 28.8088V19H45.125V26.125H49.875V19H66.5V28.8088C64.467 29.3401 62.6675 30.5305 61.3832 32.1936C60.0989 33.8567 59.4023 35.8987 59.4023 38C59.4023 40.1013 60.0989 42.1433 61.3832 43.8064C62.6675 45.4695 64.467 46.6599 66.5 47.1913Z" fill="#0056B3"/>
<path id="Vector_2" d="M45.125 30.875H49.875V45.125H45.125V30.875Z" fill="#0056B3"/>
</g>
</svg>
