<svg width="34" height="34" viewBox="0 0 34 34" fill="none" xmlns="http://www.w3.org/2000/svg">
<g id="iconamoon:shield-yes">
<g id="Group">
<path id="Vector" d="M17.0001 4.24996L17.5582 2.94662C17.3819 2.87102 17.192 2.83203 17.0001 2.83203C16.8082 2.83203 16.6183 2.87102 16.4419 2.94662L17.0001 4.24996ZM17.0001 29.75L16.2974 30.9796C16.5114 31.1019 16.7536 31.1662 17.0001 31.1662C17.2465 31.1662 17.4887 31.1019 17.7027 30.9796L17.0001 29.75ZM16.4419 2.94804L7.38375 6.82829L8.50008 9.43496L17.5582 5.55329L16.4419 2.94804ZM5.66675 9.43354V19.1519H8.50008V9.43354H5.66675ZM10.6633 27.761L16.2974 30.9796L17.7027 28.5203L12.0687 25.3002L10.6633 27.761ZM17.7027 30.9796L23.3368 27.761L21.9315 25.3002L16.2974 28.5203L17.7027 30.9796ZM28.3334 19.1505V9.43496H25.5001V19.1533L28.3334 19.1505ZM26.6164 6.82971L17.5582 2.94804L16.4419 5.55187L25.5001 9.43496L26.6164 6.82971ZM28.3334 9.43496C28.3334 8.88056 28.1706 8.33835 27.8654 7.87552C27.5602 7.41269 27.126 7.04814 26.6164 6.82971L25.5001 9.43496H28.3334ZM23.3368 27.761C24.855 26.8934 26.1168 25.6413 26.9943 24.1289C27.8717 22.6165 28.3337 20.899 28.3334 19.1505H25.5001C25.4999 20.3992 25.1696 21.6258 24.5427 22.7058C23.9157 23.7858 23.0144 24.6808 21.9301 25.3002L23.3368 27.761ZM5.66675 19.1505C5.66667 20.8988 6.12879 22.616 7.00627 24.1281C7.88375 25.6403 9.14539 26.8936 10.6633 27.761L12.0687 25.3002C10.985 24.6809 10.0842 23.7862 9.45757 22.7068C8.8309 21.6273 8.50059 20.4014 8.50008 19.1533L5.66675 19.1505ZM7.38375 6.82829C6.87397 7.04682 6.43954 7.41158 6.13433 7.87469C5.82911 8.33781 5.66653 8.88032 5.66675 9.43496H8.50008L7.38375 6.82829Z" fill="#00AA25"/>
<path id="Vector_2" d="M21.25 14.1665L15.5833 19.8332L12.75 16.9998" stroke="#00AA25" stroke-width="2" stroke-linecap="round" stroke-linejoin="round"/>
</g>
</g>
</svg>
