<svg width="20" height="20" viewBox="0 0 20 20" fill="none" xmlns="http://www.w3.org/2000/svg">
<path fill-rule="evenodd" clip-rule="evenodd" d="M6.50016 6.18147C6.50016 4.98406 6.83162 4.06601 7.40235 3.45147C7.96815 2.84223 8.82474 2.47119 10.002 2.47119C11.1798 2.47119 12.0353 2.84145 12.5999 3.44949C13.1695 4.06288 13.5002 4.97987 13.5002 6.17779V8.16678H6.50016V6.18147ZM5.50016 8.16678V6.18147C5.50016 4.80523 5.88282 3.61815 6.66961 2.77096C7.46133 1.91846 8.60567 1.47119 10.002 1.47119C11.3982 1.47119 12.5418 1.91726 13.3327 2.76903C14.1187 3.61545 14.5002 4.80175 14.5002 6.17779V8.16678H16.1668C16.7191 8.16678 17.1668 8.61449 17.1668 9.16678V17.5001C17.1668 18.0524 16.7191 18.5001 16.1668 18.5001H3.8335C3.28121 18.5001 2.8335 18.0524 2.8335 17.5001V9.16678C2.8335 8.61449 3.28121 8.16678 3.8335 8.16678H5.50016ZM3.8335 9.16678L16.1668 9.16678L16.1668 17.5001H3.8335V9.16678Z" fill="black"/>
</svg>
