<svg width="178" height="36" viewBox="0 0 178 36" fill="none" xmlns="http://www.w3.org/2000/svg">
<g id="image 2_layerstyle">
<g id="Group">
<path id="Vector" d="M0.527848 23.0945C0.904047 22.5302 1.78185 21.7778 2.53425 21.4329C3.25529 21.0881 4.19579 20.8059 4.63469 20.8059C5.07359 20.8059 6.04544 21.1194 6.82919 21.4643C7.61294 21.8091 9.21179 22.8437 10.4031 23.7215C11.5944 24.6306 13.2559 26.1354 14.1024 27.0759C15.2623 28.4239 15.6385 29.1136 15.7953 30.2109C15.9207 31.12 15.8266 32.0292 15.5445 32.7189C15.2937 33.3145 14.4786 34.2864 13.7262 34.882C12.4095 35.8539 12.19 35.9166 10.4344 35.7912C8.89829 35.6971 8.20859 35.4463 6.67244 34.4431C5.63789 33.7848 4.10174 32.5308 3.28664 31.653C2.4402 30.7752 1.40565 29.2704 0.935397 28.3299C0.496498 27.3894 0.0889484 26.0414 0.0262484 25.3517C-0.0678015 24.4739 0.0889484 23.7842 0.527848 23.0945Z" fill="#B64148"/>
<path id="Vector_2" d="M151.415 15.6333C151.823 15.1944 152.7 14.6301 153.39 14.3793C154.205 14.0658 155.553 13.9404 157.215 13.9717C159.19 14.0344 159.974 14.2225 160.632 14.6928C161.071 15.0376 161.761 15.7273 162.137 16.1976C162.732 17.0127 162.795 17.5143 162.952 28.957L162.168 29.2705C161.729 29.4272 161.008 29.4899 160.569 29.3332C160.099 29.2078 159.597 28.8629 159.472 28.5808C159.315 28.2673 159.19 25.822 159.19 23.1573C159.19 18.7056 159.127 18.2353 158.563 17.671C158.155 17.2635 157.528 17.044 156.776 17.044C156.118 17.044 155.271 17.2635 154.895 17.5143C154.205 17.9845 154.174 18.1413 154.174 28.957L153.327 29.2705C152.826 29.4586 152.167 29.5213 151.823 29.3959C151.478 29.2705 151.102 29.0197 150.976 28.8316C150.851 28.6435 150.725 25.7593 150.725 22.4676C150.725 16.6365 150.757 16.3857 151.415 15.6333Z" fill="#B64148"/>
<path id="Vector_3" d="M137.464 15.1943C137.966 14.8494 138.687 14.4419 139.126 14.2538C139.565 14.097 140.662 13.9403 141.571 13.9403C142.449 13.9089 143.578 14.0657 144.079 14.2538C144.55 14.4105 145.333 14.9435 145.835 15.4137C146.337 15.884 146.995 16.8245 147.308 17.5142C147.622 18.2039 147.904 19.3325 147.904 20.0222C147.904 20.8373 147.716 21.4643 147.371 21.7778C147.058 22.0599 146.023 22.3734 145.083 22.4988C144.142 22.6242 142.512 22.875 141.477 23.0631C140.443 23.2512 139.408 23.5647 139.189 23.7528C138.844 24.0036 138.844 24.2544 139.095 24.7874C139.283 25.1949 139.878 25.7279 140.38 25.9787C140.882 26.2295 141.948 26.4489 142.731 26.4489C143.515 26.4489 144.675 26.2295 145.333 25.9787C146.242 25.6025 146.587 25.6025 146.901 25.916C147.12 26.1041 147.308 26.6057 147.277 26.9819C147.277 27.3894 146.964 28.0478 146.587 28.4867C146.054 29.051 145.333 29.3331 143.985 29.5526C142.606 29.772 141.603 29.7407 140.223 29.4272C138.656 29.0823 138.123 28.7688 137.026 27.5775C136.273 26.7938 135.678 25.8533 135.678 25.5084C135.678 25.1636 135.552 24.8187 135.364 24.7247C135.176 24.6306 135.051 23.3766 135.051 21.9032C135.051 19.74 135.207 18.9249 135.834 17.5142C136.273 16.5737 136.994 15.5078 137.464 15.1943Z" fill="#B64148"/>
<path id="Vector_4" d="M138.844 18.7996C139.095 18.2666 139.722 17.6083 140.223 17.2948C140.725 16.9813 141.383 16.7305 141.634 16.7305C141.885 16.7305 142.575 17.0126 143.139 17.3575C143.672 17.7023 144.236 18.298 144.33 18.7055C144.424 19.0817 144.393 19.4893 144.236 19.646C144.111 19.7714 142.794 20.0536 141.352 20.273C139.095 20.5865 138.719 20.5865 138.593 20.179C138.499 19.9282 138.624 19.3012 138.844 18.7996Z" fill="#EEEEEE"/>
<path id="Vector_5" d="M114.422 14.9434C114.83 14.5986 115.426 14.2224 115.77 14.1283C116.115 14.0343 117.369 13.9716 118.592 13.9402C120.316 13.9089 121.069 14.0343 122.197 14.6299C123.169 15.1315 123.796 15.7272 124.235 16.5736C124.768 17.6709 124.862 18.4546 124.862 22.5928C124.862 27.2326 124.831 27.358 124.078 28.1731C123.639 28.612 122.73 29.145 122.04 29.3331C121.351 29.5212 119.877 29.6779 118.749 29.6779C117.369 29.6779 116.303 29.4898 115.488 29.0823C114.799 28.7688 113.984 28.1418 113.639 27.7029C113.325 27.264 112.98 26.1981 112.918 25.3516C112.792 24.223 112.918 23.4706 113.325 22.6869C113.639 22.0599 114.36 21.3388 114.987 21.0567C115.582 20.7432 117.15 20.367 118.435 20.1789C119.721 20.0221 120.912 19.7713 121.037 19.6459C121.194 19.4892 121.225 19.0189 121.131 18.5173C121.006 17.9217 120.598 17.5141 119.783 17.1693C118.686 16.699 118.404 16.699 116.397 17.2006C114.611 17.6395 114.172 17.6395 113.984 17.2947C113.858 17.0752 113.733 16.605 113.733 16.2601C113.733 15.9153 114.046 15.3196 114.422 14.9434Z" fill="#B64148"/>
<path id="Vector_6" d="M116.397 24.2544C116.491 23.9095 117.024 23.408 117.589 23.1572H117.557C118.121 22.9064 119.156 22.7183 119.846 22.781C121.1 22.8437 121.1 22.8437 121.194 24.2544C121.225 25.0381 121.162 25.8219 121.037 26.01C120.88 26.2294 120.285 26.4175 119.689 26.4489C119.093 26.5116 118.278 26.5116 117.871 26.4802C117.494 26.4802 116.962 26.104 116.711 25.6651C116.46 25.2262 116.303 24.5992 116.397 24.2544Z" fill="#EEEEEE"/>
<path id="Vector_7" d="M86.2073 15.0689C86.4268 14.7868 87.0538 14.4106 87.5554 14.2538C88.057 14.0971 89.4677 13.9403 90.6904 13.9403C92.3833 13.909 93.1984 14.0971 94.2643 14.63C95.2988 15.1316 95.8318 15.6646 96.2393 16.5737C96.6782 17.5769 96.8036 18.7055 96.8036 22.5302C96.835 26.7938 96.7723 27.3268 96.1766 28.0792C95.8004 28.6435 95.048 29.0824 94.2016 29.3018C93.4805 29.4899 91.9757 29.6467 90.8471 29.6467C89.4677 29.678 88.4018 29.4899 87.5867 29.0824C86.897 28.7689 86.0819 28.1419 85.7371 27.703C85.4236 27.2641 85.0787 26.1982 85.016 25.3517C84.8906 24.2231 85.016 23.4707 85.4236 22.687C85.7371 22.0913 86.4268 21.3703 86.9284 21.0568C87.43 20.7433 88.8721 20.3984 90.1261 20.273C91.4114 20.1163 92.6027 19.8341 92.8849 19.552C93.2611 19.1758 93.2924 18.8936 93.0416 18.2039C92.8222 17.6083 92.4146 17.2634 91.5682 17.044C90.6904 16.8245 89.9066 16.8559 88.4959 17.2007C87.4613 17.4829 86.4268 17.6083 86.2073 17.5142C86.0192 17.4202 85.8311 16.9813 85.8311 16.4797C85.8311 16.0094 85.9879 15.3824 86.2073 15.0689Z" fill="#2B3A59"/>
<path id="Vector_8" d="M88.4333 24.568C88.5274 24.0664 88.9663 23.5648 89.6246 23.2513C90.2203 22.9378 91.0667 22.687 91.537 22.687C92.0386 22.687 92.6342 22.7497 92.885 22.8438C93.1985 22.9378 93.3553 23.4394 93.3553 24.3486C93.3866 25.195 93.1985 25.822 92.8537 26.1355C92.5402 26.3863 91.7251 26.6058 90.9727 26.6058C90.0949 26.6058 89.4365 26.3863 88.9663 25.9788C88.5274 25.5399 88.3393 25.101 88.4333 24.568Z" fill="#EEEEEE"/>
<path id="Vector_9" d="M75.7991 15.5702C76.3007 15.0686 77.2726 14.5357 77.8996 14.3162C78.5579 14.1281 79.906 13.9401 80.9092 13.9401C82.2886 13.9087 82.8215 14.0341 83.3231 14.5357C83.668 14.8805 83.9501 15.4135 83.9501 15.727C83.9501 16.0091 83.7934 16.448 83.5739 16.6675C83.3545 16.8556 82.6021 17.0437 81.8497 17.0437C81.0973 17.0437 80.1254 17.2004 79.6552 17.3885C79.1536 17.5766 78.6833 17.8901 78.5579 18.0782C78.4325 18.2977 78.3071 20.8997 78.3071 29.2702H76.9904C76.238 29.2702 75.4543 29.1134 75.2348 28.894C74.9527 28.5805 74.8586 26.9189 74.8586 16.4167L75.7991 15.5702Z" fill="#2B3A59"/>
<path id="Vector_10" d="M61.5664 15.4137C61.9113 15.1316 62.5696 14.6613 63.1026 14.4105C63.6355 14.1284 64.8268 13.9089 65.8614 13.9089C66.8332 13.9089 68.0245 14.0657 68.5261 14.2538C68.9964 14.4419 69.7174 14.8808 70.125 15.257C70.5325 15.6332 71.1282 16.511 71.4417 17.2007C71.7552 17.8904 72.0373 19.0817 72.0373 19.8654C72.0373 20.6492 71.8806 21.4956 71.7238 21.7464C71.5357 22.0286 70.4071 22.3734 68.8396 22.6242C67.3975 22.8437 65.6106 23.1258 64.8268 23.2512C63.7609 23.408 63.3847 23.6274 63.322 24.0977C63.2593 24.5052 63.5728 25.0382 64.1685 25.5711C64.9522 26.2922 65.4538 26.4489 66.7705 26.4489C67.6797 26.4489 68.9337 26.2608 69.5293 26.01C70.3758 25.6338 70.7206 25.6025 71.0341 25.916C71.2536 26.1354 71.4103 26.6684 71.4103 27.1386C71.4103 27.6402 71.1282 28.2986 70.7833 28.6434C70.4385 28.9883 69.6234 29.3331 68.9964 29.4585C68.338 29.5526 67.5229 29.678 67.1781 29.7407C66.8332 29.8034 65.8614 29.7407 64.9836 29.5526C64.1371 29.3958 62.9145 28.9256 62.3188 28.4867C61.7232 28.0791 60.814 26.9819 60.2811 26.0727C59.4346 24.5679 59.3406 24.129 59.3406 21.5897C59.3406 19.113 59.4346 18.6114 60.1557 17.3574C60.6259 16.5737 61.2529 15.6959 61.5664 15.4137Z" fill="#2B3A59"/>
<path id="Vector_11" d="M63.2593 18.5488C63.4474 18.1412 63.9803 17.5769 64.4506 17.2948C64.9208 16.9813 65.6105 16.7305 65.9867 16.7305C66.3943 16.7305 67.1153 17.0753 67.6483 17.5142C68.1499 17.9531 68.5888 18.5801 68.5888 18.925C68.5888 19.2698 68.338 19.6774 68.0245 19.8341C67.7423 19.9909 66.6451 20.2103 65.6105 20.3357C64.576 20.4611 63.5415 20.6179 63.322 20.6806C63.1026 20.7746 62.9458 20.4925 62.9458 20.0222C62.9458 19.5833 63.1026 18.925 63.2593 18.5488Z" fill="#EEEEEE"/>
<path id="Vector_12" d="M164.175 11.9026C164.175 11.2756 164.394 10.6172 164.676 10.3351C165.115 9.92755 166.181 9.8335 171.197 9.8335C175.649 9.8335 177.31 9.92755 177.624 10.2097C177.843 10.4291 178 11.0875 178 11.6204C178 12.3415 177.781 12.8117 177.31 13.1252C176.872 13.4074 175.868 13.5955 172.984 13.5955V21.2762C172.984 27.1073 172.89 29.0197 172.608 29.1764C172.388 29.2705 171.636 29.3645 170.946 29.3645C170.257 29.3332 169.598 29.1451 169.473 28.8943C169.348 28.6748 169.222 25.6025 169.222 22.06C169.222 18.5174 169.128 15.163 169.003 14.5987C168.752 13.6268 168.689 13.5955 167.278 13.5955C166.432 13.5955 165.429 13.4387 164.99 13.282C164.363 13.0312 164.206 12.749 164.175 11.9026Z" fill="#B64148"/>
<path id="Vector_13" d="M97.9949 11.6518C97.974 11.0875 98.2144 10.6381 98.716 10.3037C99.343 9.92755 100.566 9.8335 111.538 9.8335L111.852 10.6172C112.008 11.0561 112.071 11.7772 111.914 12.2161C111.789 12.6863 111.444 13.1879 111.131 13.3133C110.848 13.4701 109.814 13.5955 107.149 13.5955V21.0254C107.149 25.1323 107.024 28.6748 106.898 28.8943C106.773 29.1451 106.115 29.3332 105.268 29.3332C104.484 29.3332 103.763 29.2078 103.638 29.051C103.544 28.9256 103.387 25.5085 103.324 21.4957C103.262 17.4515 103.168 14.0344 103.074 13.909C102.98 13.7836 102.07 13.6268 101.036 13.5641C99.9073 13.5014 98.9354 13.282 98.5906 12.9685C98.2771 12.7177 98.0263 12.122 97.9949 11.6518Z" fill="#B64148"/>
<path id="Vector_14" d="M45.3269 11.9653C45.2956 11.3696 45.515 10.7426 45.8599 10.3978C46.3615 9.8962 47.0198 9.8335 52.412 9.8335C56.8324 9.8335 58.4939 9.92755 58.8074 10.2097C59.0269 10.4291 59.1836 11.0561 59.215 11.5577C59.215 12.0907 59.0269 12.655 58.8074 12.8744C58.588 13.0625 57.6161 13.2506 56.6756 13.3133C55.7351 13.3447 54.7633 13.4387 54.5752 13.5014C54.2617 13.5641 54.1676 15.3511 54.1676 21.0568C54.1676 25.1323 54.0422 28.6748 53.9168 28.8943C53.7914 29.1137 53.1958 29.3332 52.5688 29.3645C51.9418 29.3959 51.2207 29.2391 50.9072 28.957C50.437 28.5494 50.3743 27.6403 50.4056 13.5955L49.2457 13.4074C48.5873 13.282 47.7095 13.282 47.2706 13.376C46.8317 13.4701 46.2361 13.4074 45.9226 13.2506C45.6091 13.0939 45.3583 12.5609 45.3269 11.9653Z" fill="#2B3A59"/>
<path id="Vector_15" d="M128.216 18.6741C128.154 9.26911 128.185 8.57941 128.718 8.45401H128.687C129 8.39131 129.69 8.39131 130.191 8.45401C130.693 8.54806 131.32 8.76751 131.539 8.98696C131.853 9.26911 131.947 11.5577 131.916 29.1136L130.975 29.3644C130.379 29.4898 129.721 29.4271 128.31 28.8001L128.216 18.6741Z" fill="#B64148"/>
<path id="Vector_16" d="M5.88858 1.90184C6.67232 1.36889 7.86362 0.773239 8.55332 0.55379C9.24302 0.33434 10.0895 0.14624 10.4343 0.14624C10.7792 0.14624 11.657 0.39704 12.378 0.74189C13.1304 1.08674 14.0082 1.80779 14.3531 2.37209C14.8233 3.15584 14.9801 3.97094 14.9801 5.75788C14.9801 7.60753 15.1368 8.35993 15.7011 9.33178C16.0773 10.0215 16.7357 10.8052 17.1746 11.1501C17.6135 11.4636 18.3659 11.8398 18.8988 11.9965C19.5258 12.1846 20.2469 12.1219 21.0933 11.8398C21.783 11.589 22.6608 11.0874 23.0684 10.6798C23.4446 10.3036 23.9775 9.51988 24.2283 8.95558C24.5105 8.39128 24.6986 7.01188 24.6986 5.75788C24.6986 4.44118 24.8867 3.18719 25.1688 2.62289C25.4196 2.08994 26.1093 1.36889 26.6422 0.992689C27.3946 0.49109 28.147 0.30299 29.2443 0.30299C30.2475 0.30299 31.3761 0.55379 32.3793 1.05539C33.2257 1.46294 34.7932 2.65424 35.8278 3.68879C36.8623 4.75468 38.0223 6.22813 38.3985 7.01188C38.8374 7.85833 39.1195 9.01828 39.1195 9.89608C39.1195 11.1814 38.9941 11.5263 38.179 12.1846C37.6461 12.6235 36.8623 13.0624 36.3607 13.1565C35.8905 13.2819 34.8873 13.2505 34.1035 13.1251C33.3198 12.9997 31.909 12.8743 30.9685 12.843C29.6518 12.8116 28.9935 12.9684 28.2097 13.5013C27.6768 13.9089 26.9557 14.6926 26.6736 15.2256C26.3288 15.8526 26.1406 16.9812 26.1093 18.1725C26.1093 19.7713 26.2347 20.2416 26.9557 21.2134C27.4573 21.8404 28.3038 22.5928 28.8367 22.875C29.5264 23.2094 30.3415 23.3243 31.282 23.2198C32.0658 23.1571 33.2571 22.9377 33.9468 22.7496C34.6992 22.5615 35.577 22.5301 36.1413 22.7182C36.6742 22.875 37.552 23.4079 38.085 23.9409C38.9941 24.756 39.1195 25.0695 39.1195 26.4489C39.1195 27.7969 38.9001 28.3299 37.6774 30.1168C36.8937 31.3081 35.6397 32.7502 34.8873 33.3459C34.1035 33.9415 32.8809 34.7566 32.1598 35.1641C31.2507 35.6344 30.2788 35.8538 29.1502 35.8538C27.8335 35.8538 27.3319 35.6971 26.5482 34.976C25.9839 34.5058 25.3569 33.7534 25.1375 33.2518C24.8867 32.7816 24.6986 31.4335 24.6986 30.1168C24.6986 28.5493 24.5418 27.5461 24.1656 26.8564C23.8521 26.3235 23.0997 25.477 22.5041 25.0068C21.6263 24.2857 20.9993 24.0976 19.2123 23.9409C17.5194 23.8155 16.767 23.5647 15.8265 22.9063C15.1995 22.4361 14.4785 21.6837 14.2277 21.1821C14.0082 20.7118 13.7574 19.4265 13.6634 18.2979C13.538 16.7304 13.2872 15.9466 12.5975 14.9121C12.0959 14.1597 11.1867 13.3446 10.5911 13.0624C9.83867 12.7489 9.02357 12.6235 8.08307 12.7489C7.29932 12.843 6.17072 13.0624 5.57508 13.2192C4.79133 13.4386 4.10163 13.4073 3.22383 13.0938C2.53413 12.8743 1.65633 12.31 1.24878 11.8711C0.778532 11.3382 0.559082 10.6798 0.559082 9.77068C0.559082 8.92423 0.841232 7.82698 1.37418 6.85513C1.81308 5.97733 2.69088 4.75468 3.31788 4.09634C3.94488 3.40664 5.10483 2.43479 5.88858 1.90184Z" fill="#2B3A59"/>
</g>
</g>
</svg>
