<svg width="36" height="22" viewBox="0 0 36 22" fill="none" xmlns="http://www.w3.org/2000/svg">
<g id="Group 2">
<path id="Vector" d="M3.19994 0H32.8001C34.5675 0 36 1.19754 36 2.67505V19.325C36 20.8025 34.5675 22 32.8001 22H3.19994C1.43252 22 0 20.8025 0 19.325V2.67505C0 1.19754 1.43252 0 3.19994 0Z" fill="#26367D"/>
<g id="Group 3">
<path id="Vector_2" d="M6 9.89281C6 10.1036 6 10.2424 6.06937 10.4526C6.06937 10.5239 6.13809 10.5914 6.13809 10.6634C6.2729 11.5741 6.68128 11.9905 7.56216 12.0631C8.1708 12.1338 8.84749 12.2019 9.46005 12.2739C9.79906 12.2739 10.0032 12.4847 10.0032 12.9011C10.0032 13.3188 9.86843 13.601 9.46005 13.601H8.24017C7.83179 13.601 7.69698 13.3902 7.63153 12.7623H6.0072V13.3948C6.0072 13.4655 6.07657 13.6056 6.07657 13.6724C6.14529 14.3009 6.55039 14.7218 7.16164 14.8606C7.56871 14.932 7.97315 14.932 8.38153 14.9994H9.60141C10.0098 14.9281 10.3475 14.8606 10.7519 14.7218C11.2257 14.583 11.5648 14.2321 11.6328 13.6724C11.7022 13.1827 11.7022 12.6229 11.7022 12.1338C11.6335 11.5741 11.3645 11.1557 10.8213 11.0143L9.60141 10.8028C9.19435 10.7315 8.78859 10.7315 8.38153 10.7315C7.90771 10.7315 7.77289 10.5207 7.77289 10.1043C7.77289 9.61456 7.97708 9.47576 8.38153 9.4044H9.05822C9.66686 9.4044 9.80429 9.47707 9.87104 10.1043V10.1756H11.4954V9.75466C11.4954 8.84398 11.0883 8.28356 10.1407 8.14411C9.19435 8.00532 8.24409 8.00532 7.29646 8.21547C6.55039 8.35427 6.21139 8.70519 6.07657 9.54254C6.06675 9.68134 6 9.75401 6 9.89281ZM20.8337 14.9281V13.108H23.136C24.0169 13.108 24.6255 12.5483 24.7603 11.7083C24.8297 11.1485 24.8951 10.5887 24.8297 10.0316C24.7603 8.77197 24.153 8.14477 22.9331 8.07209C21.7826 8.00073 20.6308 8.00073 19.4763 8.00073C19.2067 8.00073 19.1373 8.0734 19.1373 8.351V14.9962C19.6831 14.9994 20.2918 14.9994 20.8337 14.9281ZM20.8337 11.5695V9.60998C20.8337 9.60998 20.9685 9.47118 21.0378 9.47118H22.2577C22.7316 9.54385 22.9357 9.75401 22.9357 10.2424V10.9423C22.9357 11.3633 22.8009 11.5695 22.3925 11.5695H20.8337ZM25.9148 14.9994C25.9841 14.6498 26.0496 14.2289 26.1883 13.8799C26.1883 13.8072 26.3231 13.7398 26.3925 13.7398H28.5587C28.6281 13.7398 28.6935 13.8786 28.7629 13.9506C28.8977 14.3009 28.9671 14.6505 29.1019 15.0001H30.9304C30.8611 14.8613 30.7956 14.6505 30.7263 14.5117L28.8977 8.21154C28.8977 8.14018 28.7629 8.00073 28.6935 8.00073H26.119C25.8454 8.84398 25.6451 9.68134 25.3729 10.5207C24.9645 11.9878 24.492 13.5257 24.0876 14.9968C24.0869 14.9962 25.9148 14.9994 25.9148 14.9994ZM28.4206 12.4795H26.6576C26.9272 11.4975 27.2008 10.4493 27.4704 9.47053H27.5391C27.8127 10.4526 28.1504 11.43 28.42 12.4795H28.4206Z" fill="white"/>
<path id="Vector_3" d="M17.1792 13.8072C16.0928 13.8072 15.2813 13.3188 14.9423 12.5475H17.3821L17.6517 11.7769H14.6688V11.2172L17.7178 11.356L18.0555 10.4486H14.8042C15.1419 9.47045 16.0241 8.97812 17.1746 8.97812C17.6615 8.97484 18.1439 9.07239 18.5987 9.25702L18.8683 8.2789C18.5987 8.13879 17.9874 8 17.1066 8C15.2774 8 13.8533 8.91068 13.3802 10.5199H12.5719L12.2329 11.2912H13.2486V11.9151H12.64L12.2329 12.6863H13.3834C13.7918 14.0854 15.0771 14.9241 16.9057 14.9241C17.7865 14.9241 18.4645 14.7853 18.7342 14.6452L18.53 13.6671C18.2643 13.7404 17.7211 13.8072 17.1792 13.8072Z" fill="#FBBA2C"/>
</g>
</g>
</svg>
